<svg width="592" height="1115" viewBox="0 0 592 1115" fill="none" xmlns="http://www.w3.org/2000/svg">
<path d="M6.17188 696.702C10.3801 695.082 17.8553 697.983 31.2637 706.401C32.4399 707.133 35.2888 708.885 37.5889 710.271C54.3954 720.466 78.5211 737.119 97.9414 751.942C112.761 763.262 112.552 763.001 121.543 781.014C124.862 787.628 128.444 794.581 129.516 796.438C130.587 798.294 131.92 800.621 132.469 801.641C141.512 818.189 164.592 854.633 173.636 866.606C174.446 867.678 176.512 870.553 178.263 873.011C181.373 877.403 183.359 880.07 188.848 887.154C193.422 893.115 196.663 897.219 198.623 899.572C199.642 900.775 202.073 903.651 203.981 905.951C207.275 909.899 209.784 912.801 217.129 920.983C243.789 950.787 285.035 986.446 298.365 991.256C305.971 994.001 316.923 987.857 339.088 968.459C340.735 967.021 343.506 964.591 345.23 963.101C355.189 954.369 376.203 933.48 389.429 919.153C409.476 897.455 425.839 877.298 444.763 851.051C446.723 848.358 453.911 837.64 456.891 832.986C460.21 827.81 463.111 826.215 472.782 824.254C498.084 819.13 539.303 814.451 570.537 813.144C580.391 812.725 584.416 814.947 583.109 820.071C580.417 830.581 547.274 884.043 523.254 916.67C501.272 946.499 484.178 967.178 458.955 994.472C453.597 1000.25 431.615 1022.29 426.492 1026.99C424.61 1028.72 421.5 1031.59 419.565 1033.4C402.288 1049.45 380.124 1067.65 361.566 1080.98C351.922 1087.91 350.51 1088.87 341.545 1094.78C310.284 1115.28 304.769 1117.47 295.202 1113.16C285.452 1108.77 254.27 1087.36 231.557 1069.5C187.985 1035.23 157.038 1005.35 120.707 962.42C95.2229 932.329 70.4706 897.847 53.6641 869.09C51.913 866.058 49.848 862.528 49.0898 861.247C25.5398 820.961 8.54999 776.987 2.56445 740.857C1.96333 737.276 1.78037 735.812 0.682617 725.825C-1.17311 709.068 0.787533 698.767 6.17188 696.702ZM407.83 348.346C408.327 348.293 410.914 348.293 413.58 348.346C420.82 348.503 442.515 348.711 477.095 348.973C494.137 349.103 517.425 349.339 528.848 349.496C540.27 349.627 563.632 349.809 575.264 349.861C583.353 349.905 597.226 355.563 576.343 366.079C564.816 371.935 560.709 373.678 555.639 376.423C552.764 377.965 548.896 380.031 547.014 380.998C545.158 381.965 542.387 383.429 540.871 384.266C539.355 385.076 535.67 387.116 532.638 388.763C529.632 390.41 524.561 393.154 521.398 394.854C518.236 396.553 513.479 399.141 510.812 400.605C508.147 402.069 504.801 403.899 503.363 404.657C499.626 406.644 488.674 412.553 485.59 414.278C484.152 415.063 480.754 416.919 478.01 418.383C475.292 419.847 471.685 421.808 470.038 422.749C468.391 423.69 465.359 425.337 463.32 426.435C461.255 427.559 457.91 429.337 455.871 430.435C453.806 431.559 450.304 433.467 448.082 434.722C445.86 435.976 442.515 437.833 440.633 438.826C438.777 439.846 434.072 442.434 430.178 444.578C413.476 453.807 409.737 455.872 404.301 458.853C401.138 460.578 396.382 463.192 393.716 464.656C391.05 466.12 385.874 468.944 382.215 470.931C378.556 472.918 373.798 475.505 371.629 476.682C369.486 477.884 364.075 480.786 359.605 483.165C355.162 485.544 348.681 489.022 345.23 490.878C338.827 494.355 335.167 496.341 322.098 503.348C314.544 507.4 303.618 513.335 296.404 517.309C294.235 518.511 290.68 520.419 288.511 521.569C286.367 522.72 282.368 524.942 279.624 526.484C276.906 528.027 273.481 529.935 272.044 530.72C245.619 545.36 235.844 552.601 235.844 557.595C235.844 562.588 245.619 569.83 272.044 584.47C273.481 585.254 276.906 587.163 279.624 588.705C282.368 590.247 286.367 592.47 288.511 593.62C290.68 594.77 294.235 596.678 296.404 597.881C303.618 601.855 314.544 607.79 322.098 611.842C335.167 618.848 338.827 620.835 345.23 624.312C348.681 626.168 355.162 629.645 359.605 632.024C364.075 634.403 369.486 637.305 371.629 638.508C373.798 639.684 378.556 642.272 382.215 644.259C385.874 646.246 391.05 649.069 393.716 650.533C396.382 651.997 401.138 654.612 404.301 656.337C409.737 659.317 413.476 661.383 430.178 670.611C434.072 672.755 438.777 675.343 440.633 676.362C442.515 677.356 445.86 679.212 448.082 680.467C450.304 681.722 453.806 683.631 455.871 684.755C457.91 685.853 461.256 687.631 463.32 688.755C465.359 689.853 468.391 691.499 470.038 692.44C471.685 693.382 475.292 695.343 478.01 696.807C480.754 698.271 484.152 700.127 485.59 700.911C488.674 702.637 499.626 708.544 503.363 710.531C504.801 711.289 508.146 713.12 510.812 714.584C513.479 716.048 518.236 718.636 521.398 720.335C524.561 722.034 529.632 724.78 532.638 726.427C535.67 728.074 539.355 730.112 540.871 730.923C542.387 731.759 545.158 733.224 547.014 734.191C548.896 735.159 552.764 737.224 555.639 738.767C560.709 741.512 572.559 748.545 584.086 754.401C605.081 764.974 578.56 765.285 570.537 765.327C522.143 765.542 473.73 766.009 425.342 766.713C416.351 766.817 408.587 766.896 408.091 766.844C407.594 766.791 405.53 766.634 403.518 766.478C391.05 765.484 381.065 762.034 365.879 753.459C364.729 752.805 360.155 750.374 355.686 748.047C351.242 745.694 344.524 742.191 340.786 740.204C337.049 738.217 331.299 735.211 327.979 733.485C324.687 731.76 321.837 730.244 321.68 730.113C321.523 729.983 318.909 728.597 315.93 727.028C312.924 725.486 307.174 722.479 303.148 720.335C299.123 718.217 293.529 715.29 290.732 713.8C287.936 712.336 283.807 710.165 281.585 708.963C279.363 707.786 272.881 704.362 267.209 701.382C261.537 698.402 253.068 693.931 248.39 691.447C243.711 688.964 237.778 685.8 235.19 684.44C232.603 683.081 229.78 681.539 228.917 681.042C228.054 680.519 225.414 679.081 223.036 677.853C217.965 675.186 212.084 672.022 207.876 669.748C203.563 667.395 195.669 663.134 188.403 659.291C184.953 657.461 180.013 654.821 177.426 653.409C174.838 652.024 170.604 649.749 168.017 648.39C165.429 647.004 160.384 644.311 156.777 642.351C153.197 640.416 148.073 637.671 145.407 636.233C142.741 634.796 137.801 632.154 134.43 630.351C131.058 628.573 125.935 625.828 123.06 624.26C120.184 622.717 116.943 620.992 115.871 620.469C114.799 619.92 111.689 618.299 108.945 616.809C102.437 613.305 92.5828 608.077 85.5518 604.391C82.4676 602.77 78.5469 600.705 76.874 599.79C73.9727 598.195 61.4786 591.58 50.4746 585.803C41.1176 580.862 38.6864 579.581 34.4521 577.307C32.152 576.078 27.6306 573.672 24.3896 571.999C-2.76588 557.859 -2.76592 557.33 24.3896 543.189C27.6306 541.516 32.152 539.112 34.4521 537.883C38.6864 535.608 41.1177 534.328 50.4746 529.387C61.4786 523.609 73.9727 516.994 76.874 515.399C78.5469 514.484 82.4676 512.42 85.5518 510.799C92.5828 507.113 102.437 501.884 108.945 498.381C111.689 496.891 114.799 495.27 115.871 494.721C116.943 494.198 120.184 492.472 123.06 490.93C125.935 489.361 131.058 486.617 134.43 484.839C137.801 483.035 142.741 480.394 145.407 478.956C148.073 477.518 153.197 474.773 156.777 472.839C160.384 470.878 165.429 468.185 168.017 466.8C170.604 465.44 174.838 463.166 177.426 461.78C180.013 460.369 184.953 457.728 188.403 455.898C195.67 452.055 203.563 447.793 207.876 445.44C212.084 443.166 217.965 440.003 223.036 437.337C225.414 436.108 228.054 434.671 228.917 434.147C229.78 433.651 232.603 432.108 235.19 430.748C237.778 429.389 243.711 426.226 248.39 423.742C253.068 421.259 261.537 416.788 267.209 413.808C272.881 410.827 279.363 407.403 281.585 406.227C283.807 405.024 287.936 402.854 290.732 401.39C293.529 399.9 299.123 396.971 303.148 394.854C307.174 392.71 312.924 389.704 315.93 388.161C318.909 386.593 321.523 385.207 321.68 385.076C321.837 384.945 324.686 383.43 327.979 381.704C331.299 379.979 337.049 376.972 340.786 374.985C344.524 372.998 351.242 369.495 355.686 367.143C360.155 364.816 364.729 362.384 365.879 361.73C381.013 353.208 391.024 349.731 403.387 348.711C405.321 348.554 407.333 348.398 407.83 348.346ZM299.385 0.380875C305.945 -1.39662 314.519 2.68157 341.545 20.4063C350.51 26.3145 351.922 27.2821 361.566 34.21C380.124 47.5429 402.288 65.7392 419.565 81.791C421.5 83.5949 424.61 86.4699 426.492 88.1953C431.615 92.9011 453.597 114.94 458.955 120.718C484.178 148.011 501.272 168.69 523.254 198.52C547.274 231.146 580.417 284.609 583.109 295.118C584.076 298.883 581.881 301.209 576.784 301.941C570.955 302.778 523.41 298.961 504.539 296.164C503.598 296.033 500.252 295.563 497.09 295.118C487.602 293.785 471.397 290.831 466.979 289.628C462.484 288.399 459.4 286.125 456.891 282.203C453.911 277.55 446.723 266.832 444.763 264.139C425.839 237.891 409.476 217.735 389.429 196.036C376.203 181.71 355.189 160.821 345.23 152.089C343.505 150.599 340.735 148.167 339.088 146.73C316.923 127.331 305.971 121.189 298.365 123.934C285.035 128.744 243.789 164.403 217.129 194.206C209.784 202.389 207.275 205.291 203.981 209.238C202.073 211.539 199.642 214.415 198.623 215.617C196.663 217.97 193.422 222.075 188.848 228.035C183.359 235.12 181.373 237.787 178.263 242.179C176.512 244.61 174.446 247.511 173.636 248.583C164.592 260.557 141.512 297 132.469 313.549C131.92 314.542 130.587 316.896 129.516 318.752C128.444 320.609 124.862 327.562 121.543 334.176C112.552 352.188 112.761 351.927 97.9414 363.247C78.5211 378.07 54.3954 394.723 37.5889 404.919C35.2888 406.305 32.4399 408.056 31.2637 408.788C10.7459 421.676 3.6887 422.147 0.813477 410.802C0.0293571 407.665 -0.0492027 396.031 0.682617 389.364C1.78037 379.378 1.96333 377.913 2.56445 374.332C8.54999 338.202 25.5398 294.229 49.0898 253.942C49.848 252.635 51.913 249.106 53.6641 246.1C61.4792 232.714 72.3004 216.166 83.1475 201.003C131.763 133.057 189.24 75.2813 255.577 27.6748C278.474 11.257 293.216 2.05403 299.385 0.380875Z" fill="black"/>
</svg>
