<?xml version="1.0" standalone="no"?>
<!DOCTYPE svg PUBLIC "-//W3C//DTD SVG 20010904//EN"
 "http://www.w3.org/TR/2001/REC-SVG-20010904/DTD/svg10.dtd">
<svg version="1.0" xmlns="http://www.w3.org/2000/svg"
 width="848.908358pt" height="620.896324pt" viewBox="0 0 848.908358 620.896324"
 preserveAspectRatio="xMidYMid meet">
<metadata>
Created by potrace 1.16, written by Peter Selinger 2001-2019
</metadata>
<g transform="translate(-12.091642,683.000000) scale(0.100000,-0.100000)"
fill="#000000" stroke="none">
<path d="M149 6811 c-23 -18 -24 -26 -27 -156 -4 -150 4 -185 44 -204 37 -16
1335 -16 1352 1 17 17 17 349 0 366 -9 9 -174 12 -679 12 -641 0 -668 -1 -690
-19z"/>
<path d="M1640 6646 l0 -184 168 -4 c164 -3 168 -4 235 -35 81 -39 164 -117
202 -193 15 -29 81 -236 147 -459 66 -223 171 -581 234 -796 113 -382 300
-1012 407 -1372 30 -100 72 -215 92 -256 100 -199 271 -350 468 -412 89 -28
234 -48 322 -43 l60 3 3 183 2 182 -72 0 c-100 0 -179 14 -244 44 -75 35 -167
125 -204 200 -24 50 -147 454 -346 1137 -18 64 -36 123 -39 131 -4 10 10 28
38 51 l45 37 318 -337 c176 -185 382 -404 459 -485 l140 -148 175 0 175 0 78
123 c42 67 130 208 196 312 l118 190 349 3 c192 1 354 0 360 -2 8 -3 -8 -76
-48 -218 -33 -117 -92 -332 -132 -478 -41 -147 -87 -292 -103 -325 -18 -35
-55 -83 -87 -113 -93 -88 -191 -122 -353 -122 l-83 0 2 -182 3 -183 128 2
c159 1 252 21 365 78 159 80 283 203 359 356 37 74 206 619 326 1051 l24 87
-119 178 c-66 98 -123 184 -127 192 -7 12 -62 14 -324 13 -174 -1 -318 1 -320
6 -2 4 76 135 175 292 98 157 183 291 187 299 6 9 58 -60 173 -230 91 -134
241 -356 335 -494 93 -137 292 -433 441 -657 l272 -408 193 1 c106 0 208 4
225 7 l33 7 -258 382 c-142 211 -347 514 -457 675 l-198 292 173 570 c95 314
186 598 202 630 39 81 120 159 204 199 65 30 74 32 228 37 l160 5 0 180 0 180
-145 3 c-211 4 -335 -25 -478 -112 -79 -48 -183 -145 -238 -221 -83 -117 -100
-165 -325 -923 -24 -78 -47 -141 -52 -139 -8 2 -142 202 -365 545 -52 79 -101
146 -109 149 -10 4 -24 -3 -38 -19 -11 -13 -131 -202 -265 -419 -134 -217
-294 -475 -355 -574 -62 -99 -199 -319 -305 -490 -105 -170 -197 -316 -204
-322 -9 -10 -52 30 -191 179 -99 105 -278 295 -398 422 -119 127 -216 233
-215 237 2 3 227 225 501 493 273 268 497 489 497 492 0 2 -125 4 -277 4
l-278 -1 -463 -461 c-255 -253 -467 -457 -472 -452 -4 5 -80 252 -169 549 -89
297 -175 568 -191 602 -82 177 -239 329 -413 402 -112 46 -205 61 -382 61
l-155 0 0 -184z"/>
<path d="M7247 6823 c-4 -3 -7 -89 -7 -189 0 -182 0 -184 23 -189 12 -3 312
-4 665 -3 l644 3 19 24 c17 20 19 40 19 168 0 139 -1 145 -25 168 l-24 25
-654 0 c-359 0 -657 -3 -660 -7z"/>
<path d="M4092 3538 c-15 -15 -17 -874 -3 -898 8 -12 50 -14 258 -11 216 2
250 4 261 18 16 22 18 854 2 884 -10 18 -24 19 -258 19 -180 0 -251 -3 -260
-12z"/>
<path d="M1241 1938 c-94 -256 -191 -526 -191 -531 0 -4 31 -7 69 -7 l68 0 19
53 19 52 100 0 100 0 19 -52 19 -53 69 0 70 0 -7 27 c-5 23 -120 341 -172 478
l-19 50 -77 3 c-73 3 -78 1 -86 -20z m120 -225 c16 -49 29 -91 29 -95 0 -5
-29 -8 -65 -8 -36 0 -65 3 -65 8 0 16 64 192 68 187 3 -3 18 -44 33 -92z"/>
<path d="M1970 1680 l0 -280 70 0 70 0 0 110 0 110 33 0 c30 0 38 -9 107 -110
l75 -110 78 0 c42 0 77 2 77 5 0 3 -45 69 -100 146 -55 78 -100 146 -100 151
0 6 43 64 95 129 52 65 95 121 95 124 0 3 -34 5 -75 5 l-75 0 -72 -88 c-40
-48 -82 -100 -94 -116 -34 -47 -44 -27 -44 95 l0 109 -70 0 -70 0 0 -280z"/>
<path d="M2991 1938 c-30 -80 -191 -529 -191 -533 0 -3 31 -5 69 -5 l68 0 19
53 19 52 94 3 c55 2 98 -2 106 -8 7 -6 18 -31 25 -55 l13 -45 72 0 73 0 -63
173 c-35 94 -80 219 -101 277 l-39 105 -78 3 c-73 3 -78 1 -86 -20z m119 -223
c17 -49 30 -92 30 -97 0 -4 -30 -8 -66 -8 -49 0 -65 3 -62 13 2 6 17 51 33 99
16 48 31 86 32 84 2 -2 17 -43 33 -91z"/>
<path d="M3828 1783 c-4 -154 -7 -184 -26 -226 -17 -38 -27 -49 -52 -53 l-30
-6 0 -104 0 -104 70 0 70 0 0 55 0 55 160 0 160 0 0 -55 0 -55 70 0 71 0 -3
108 -3 107 -32 3 -33 3 0 225 0 224 -209 0 -209 0 -4 -177z m282 -103 l0 -170
-91 0 c-81 0 -90 2 -85 18 16 49 26 135 26 217 0 50 3 95 7 98 3 4 37 7 75 7
l68 0 0 -170z"/>
<path d="M4707 1953 c-3 -5 -6 -131 -6 -280 l-2 -273 210 0 211 0 0 55 0 55
-140 0 -140 0 0 60 0 60 120 0 120 0 0 50 0 49 -117 3 -118 3 0 55 0 55 138 3
137 3 0 54 0 55 -204 0 c-113 0 -207 -3 -209 -7z"/>
<path d="M5527 1954 c-4 -4 -7 -130 -7 -281 l0 -273 70 0 70 0 1 163 0 162 54
-112 54 -113 53 0 53 0 57 113 57 112 0 -162 1 -163 65 0 65 0 0 280 0 280
-73 0 -74 0 -71 -150 c-39 -82 -74 -150 -77 -150 -3 0 -38 66 -78 148 l-72
147 -71 3 c-38 1 -73 0 -77 -4z"/>
<path d="M6517 1953 c-4 -3 -7 -129 -7 -280 l0 -273 73 0 74 0 101 167 102
168 0 -168 0 -167 70 0 70 0 0 280 0 281 -72 -3 -71 -3 -94 -155 c-52 -85 -99
-159 -104 -165 -5 -5 -9 56 -9 158 l0 167 -63 0 c-35 0 -67 -3 -70 -7z"/>
<path d="M7521 1949 c-85 -25 -121 -80 -121 -186 0 -80 20 -128 66 -159 l32
-21 -59 -91 -59 -92 79 0 78 0 53 86 c51 84 53 85 89 82 l36 -3 3 -82 3 -83
70 0 69 0 -2 278 -3 277 -150 2 c-82 1 -165 -3 -184 -8z m197 -186 l3 -83 -74
0 c-94 0 -110 13 -105 91 4 66 25 80 113 77 l60 -3 3 -82z"/>
<path d="M1080 829 l0 -150 28 3 c26 3 27 6 30 66 4 85 25 84 82 -3 38 -59 46
-65 76 -65 19 0 34 2 34 5 0 3 -25 39 -55 80 -30 40 -55 77 -55 81 0 4 23 33
50 65 28 32 50 60 50 64 0 3 -14 5 -32 3 -25 -2 -42 -15 -77 -58 -61 -76 -71
-76 -71 -1 l0 61 -30 0 -30 0 0 -151z"/>
<path d="M1631 967 c-13 -8 -30 -25 -37 -38 -16 -28 -18 -156 -4 -193 15 -39
63 -59 133 -54 50 4 64 9 84 32 20 24 23 37 23 116 0 79 -3 92 -24 116 -20 24
-32 28 -87 31 -42 2 -72 -1 -88 -10z m117 -43 c20 -13 22 -24 22 -93 0 -90 -9
-103 -67 -103 -50 0 -63 21 -63 104 0 55 4 72 20 88 24 24 57 26 88 4z"/>
<path d="M2159 965 c-33 -18 -49 -61 -49 -135 0 -110 33 -150 125 -150 67 0
114 30 115 73 0 25 -44 22 -62 -5 -11 -16 -25 -22 -50 -22 -60 0 -69 15 -66
108 3 74 5 81 29 95 32 18 79 7 86 -19 4 -14 14 -20 34 -20 16 0 29 4 29 10 0
23 -24 59 -47 69 -33 15 -113 13 -144 -4z"/>
<path d="M2610 955 c0 -23 4 -25 40 -25 l39 0 3 -122 3 -123 28 -3 27 -3 0
125 0 125 43 3 c34 2 42 7 42 23 0 19 -8 20 -112 23 l-113 3 0 -26z"/>
<path d="M3110 830 l0 -150 29 0 c25 0 35 10 87 98 l59 97 5 -95 c5 -93 5 -95
30 -95 l25 0 3 148 3 148 -33 -3 c-29 -3 -38 -13 -87 -95 -31 -51 -59 -92 -63
-93 -5 0 -8 43 -8 95 0 95 0 95 -25 95 l-25 0 0 -150z"/>
<path d="M4045 963 c-31 -81 -95 -264 -95 -273 0 -6 12 -10 27 -8 21 2 29 10
37 36 9 31 10 32 67 32 57 0 58 0 70 -35 11 -29 18 -35 42 -35 19 0 28 4 25
13 -99 282 -101 287 -134 287 -21 0 -34 -6 -39 -17z m72 -144 c5 -28 4 -29
-29 -29 -19 0 -37 3 -41 6 -5 5 8 52 29 104 7 17 31 -30 41 -81z"/>
<path d="M4490 830 l0 -150 30 0 30 0 0 65 0 65 60 0 59 0 3 -62 c3 -60 4 -63
31 -66 l27 -3 0 150 0 151 -30 0 -30 0 0 -60 0 -60 -60 0 -60 0 0 60 0 60 -30
0 -30 0 0 -150z"/>
<path d="M5067 883 c-6 -107 -18 -153 -42 -153 -11 0 -15 -11 -15 -45 0 -25 0
-48 0 -52 0 -5 10 -8 23 -8 17 0 23 7 25 28 l3 27 94 0 94 0 3 -27 c2 -20 9
-29 26 -31 21 -3 22 0 22 52 0 43 -3 56 -15 56 -13 0 -15 21 -15 125 l0 125
-99 0 -98 0 -6 -97z m143 -53 l0 -100 -56 0 c-49 0 -55 2 -49 18 4 9 9 54 12
100 l6 82 43 0 44 0 0 -100z"/>
<path d="M5582 833 l3 -148 25 0 c23 0 25 4 28 48 l3 47 50 0 c85 0 123 32
121 102 -2 75 -38 98 -157 98 l-76 0 3 -147z m172 64 c16 -44 -2 -61 -63 -65
l-51 -3 0 51 0 51 52 -3 c47 -3 54 -6 62 -31z"/>
<path d="M6100 830 l0 -150 100 0 100 0 0 25 c0 24 -2 25 -75 25 l-75 0 0 40
0 40 65 0 c63 0 65 1 65 25 0 24 -2 25 -65 25 l-65 0 0 35 0 35 75 0 c73 0 75
1 75 25 l0 25 -100 0 -100 0 0 -150z"/>
<path d="M6590 830 l0 -150 100 0 c100 0 100 0 100 25 0 23 -3 24 -72 27 l-72
3 0 35 0 35 62 3 c58 3 62 4 62 27 0 24 -3 25 -63 25 l-63 0 4 35 4 35 69 0
c67 0 69 1 69 25 l0 25 -100 0 -100 0 0 -150z"/>
<path d="M7080 831 l0 -151 74 0 c83 0 132 14 146 40 15 29 12 81 -7 102 -13
14 -14 21 -5 30 7 7 12 28 12 48 0 59 -25 74 -131 78 l-89 4 0 -151z m165 88
c4 -5 4 -21 1 -35 -6 -21 -12 -24 -56 -24 l-50 0 0 35 0 35 49 0 c28 0 53 -5
56 -11z m0 -149 l0 -35 -52 -3 -53 -3 0 41 0 41 53 -3 52 -3 0 -35z"/>
<path d="M7621 841 c-28 -76 -51 -144 -51 -150 0 -7 11 -11 27 -9 21 2 29 10
37 36 9 31 10 32 67 32 57 0 58 0 69 -35 10 -30 16 -35 42 -35 20 0 29 4 26
13 -3 6 -27 74 -54 150 -49 137 -49 137 -80 137 -31 0 -32 -1 -83 -139z m118
-38 c1 -9 -13 -13 -39 -13 -22 0 -40 2 -40 4 0 4 27 82 36 106 4 10 13 -3 24
-35 10 -27 19 -56 19 -62z"/>
</g>
</svg>
