<?xml version="1.0" standalone="no"?>
<!DOCTYPE svg PUBLIC "-//W3C//DTD SVG 20010904//EN"
 "http://www.w3.org/TR/2001/REC-SVG-20010904/DTD/svg10.dtd">
<svg version="1.0" xmlns="http://www.w3.org/2000/svg"
 width="848.908358pt" height="420.224195pt" viewBox="0 0 848.908358 420.224195"
 preserveAspectRatio="xMidYMid meet">
<metadata>
Created by potrace 1.16, written by Peter Selinger 2001-2019
</metadata>
<g transform="translate(-12.091642,426.000000) scale(0.100000,-0.100000)"
fill="#000000" stroke="none">
<path d="M149 4241 c-23 -18 -24 -26 -27 -156 -4 -150 4 -185 44 -204 37 -16
1335 -16 1352 1 17 17 17 349 0 366 -9 9 -174 12 -679 12 -641 0 -668 -1 -690
-19z"/>
<path d="M1640 4076 l0 -184 168 -4 c164 -3 168 -4 235 -35 81 -39 164 -117
202 -193 15 -29 81 -236 147 -459 66 -223 171 -581 234 -796 113 -382 300
-1012 407 -1372 30 -100 72 -215 92 -256 100 -199 271 -350 468 -412 89 -28
234 -48 322 -43 l60 3 3 183 2 182 -72 0 c-100 0 -179 14 -244 44 -75 35 -167
125 -204 200 -24 50 -147 454 -346 1137 -18 64 -36 123 -39 131 -4 10 10 28
38 51 l45 37 318 -337 c176 -185 382 -404 459 -485 l140 -148 175 0 175 0 78
122 c42 68 130 209 196 313 l118 190 349 3 c192 1 354 0 360 -2 8 -3 -8 -76
-48 -218 -33 -117 -92 -332 -132 -478 -41 -147 -87 -292 -103 -325 -18 -35
-55 -83 -87 -113 -93 -88 -191 -122 -353 -122 l-83 0 2 -182 3 -183 128 2
c159 1 252 21 365 78 159 80 283 203 359 356 37 74 206 619 326 1051 l24 87
-119 178 c-66 98 -123 184 -127 192 -7 12 -62 14 -324 13 -174 -1 -318 1 -320
6 -2 4 76 135 175 292 98 157 183 291 187 299 6 9 58 -60 173 -230 91 -134
241 -356 335 -494 93 -137 292 -433 441 -657 l272 -408 193 1 c106 0 208 4
225 7 l33 7 -258 382 c-142 211 -347 514 -457 675 l-198 292 173 570 c95 314
186 598 202 630 39 81 120 159 204 199 65 30 74 32 228 37 l160 5 0 180 0 180
-145 3 c-211 4 -335 -25 -478 -112 -79 -48 -183 -145 -238 -221 -83 -117 -100
-165 -325 -923 -24 -78 -47 -141 -52 -139 -8 2 -142 202 -365 545 -52 79 -101
146 -109 149 -10 4 -24 -3 -38 -19 -11 -13 -131 -202 -265 -419 -134 -217
-294 -475 -355 -574 -62 -99 -199 -319 -305 -490 -105 -170 -197 -316 -204
-322 -9 -10 -52 30 -191 179 -99 105 -278 295 -398 422 -119 127 -216 233
-215 237 2 3 227 225 501 493 273 268 497 489 497 492 0 2 -125 4 -277 4
l-278 -1 -463 -461 c-255 -253 -467 -457 -472 -452 -4 5 -80 252 -169 549 -89
297 -175 568 -191 602 -82 177 -239 329 -413 402 -112 46 -205 61 -382 61
l-155 0 0 -184z"/>
<path d="M7247 4253 c-4 -3 -7 -89 -7 -189 0 -182 0 -184 23 -189 12 -3 312
-4 665 -3 l644 3 19 24 c17 20 19 40 19 168 0 139 -1 145 -25 168 l-24 25
-654 0 c-359 0 -657 -3 -660 -7z"/>
<path d="M4092 968 c-15 -15 -17 -874 -3 -898 8 -12 50 -14 258 -11 216 2 250
4 261 18 16 22 18 854 2 884 -10 18 -24 19 -258 19 -180 0 -251 -3 -260 -12z"/>
</g>
</svg>
