<svg width="2404" height="1115" viewBox="0 0 2404 1115" fill="none" xmlns="http://www.w3.org/2000/svg">
<path d="M6.17188 696.702C10.3801 695.082 17.8554 697.984 31.2637 706.401C32.4399 707.133 35.2889 708.885 37.5889 710.271C54.3954 720.466 78.5211 737.119 97.9414 751.942C112.761 763.262 112.552 763.001 121.543 781.014C124.862 787.628 128.444 794.581 129.516 796.438C130.587 798.294 131.92 800.621 132.469 801.641C141.512 818.189 164.592 854.633 173.636 866.606C174.446 867.679 176.512 870.554 178.263 873.011C181.373 877.403 183.359 880.07 188.848 887.154C193.422 893.115 196.663 897.219 198.623 899.572C199.642 900.775 202.073 903.651 203.981 905.951C207.275 909.899 209.784 912.801 217.129 920.983C243.789 950.787 285.035 986.446 298.365 991.256C305.971 994.001 316.923 987.857 339.088 968.459C340.735 967.021 343.506 964.591 345.23 963.101C355.189 954.369 376.203 933.48 389.429 919.153C409.476 897.455 425.839 877.298 444.763 851.051C446.723 848.358 453.911 837.64 456.891 832.986C460.21 827.81 463.111 826.215 472.782 824.254C498.084 819.13 539.303 814.451 570.537 813.144C580.391 812.725 584.416 814.947 583.109 820.071C580.417 830.581 547.274 884.043 523.254 916.67C501.272 946.499 484.178 967.178 458.955 994.472C453.597 1000.25 431.615 1022.29 426.492 1026.99C424.61 1028.72 421.5 1031.59 419.565 1033.4C402.288 1049.45 380.124 1067.65 361.566 1080.98C351.922 1087.91 350.51 1088.87 341.545 1094.78C310.284 1115.28 304.768 1117.47 295.202 1113.16C285.452 1108.77 254.27 1087.36 231.557 1069.5C187.985 1035.23 157.038 1005.35 120.707 962.42C95.2229 932.329 70.4706 897.847 53.6641 869.09C51.913 866.058 49.8481 862.528 49.0898 861.247C25.5398 820.961 8.55 776.987 2.56445 740.857C1.96333 737.276 1.78036 735.812 0.682617 725.825C-1.17311 709.068 0.787532 698.767 6.17188 696.702ZM1967.9 694.631C1968.98 694.631 1969.59 695.115 1969.71 696.081L1994.79 797.558H2001.24C2002.32 797.558 2002.87 798.162 2002.87 799.37V835.974C2002.87 836.577 2002.69 837.001 2002.33 837.242C2002.08 837.605 2001.72 837.786 2001.24 837.786H1987.47C1986.38 837.786 1985.83 837.182 1985.83 835.974V813.323H1931.11V835.974C1931.11 837.182 1930.51 837.786 1929.3 837.786H1915.71C1914.62 837.786 1914.08 837.182 1914.08 835.974V799.37C1914.08 798.162 1914.62 797.558 1915.71 797.558H1922.16L1947.24 696.081C1947.6 695.115 1948.26 694.631 1949.23 694.631H1967.9ZM881.314 693.182C893.516 693.182 902.757 696.503 909.039 703.147C915.442 709.792 918.644 719.517 918.644 732.322V775.812C918.644 788.497 915.442 798.161 909.039 804.806C902.757 811.45 893.516 814.772 881.314 814.772C869.113 814.772 859.811 811.45 853.408 804.806C847.126 798.161 843.985 788.497 843.985 775.812V732.322C843.985 719.517 847.126 709.792 853.408 703.147C859.811 696.503 869.113 693.182 881.314 693.182ZM1068.19 693.182C1076.4 693.182 1083.41 694.872 1089.21 698.255C1095 701.517 1099.23 706.229 1101.89 712.39C1104.55 718.43 1105.33 725.558 1104.25 733.772C1104.13 735.101 1103.52 735.766 1102.43 735.766H1088.48C1087.39 735.766 1086.85 735.161 1086.85 733.953C1087.45 725.859 1086.19 719.698 1083.04 715.47C1079.9 711.121 1075.01 708.946 1068.37 708.946C1061.84 708.946 1056.83 711 1053.33 715.107C1049.94 719.094 1048.25 725.376 1048.25 733.953V774.001C1048.25 782.578 1049.94 788.92 1053.33 793.027C1056.83 797.014 1061.84 799.008 1068.37 799.008C1075.25 799.008 1080.27 796.772 1083.41 792.303C1086.55 787.712 1087.82 781.612 1087.21 774.001C1086.97 772.793 1087.45 772.189 1088.66 772.188H1102.43C1103.52 772.189 1104.19 772.853 1104.43 774.182C1105.39 786.745 1102.68 796.652 1096.27 803.9C1089.87 811.149 1080.51 814.772 1068.19 814.772C1056.11 814.772 1046.86 811.45 1040.46 804.806C1034.06 798.161 1030.86 788.135 1030.86 774.726V733.229C1030.86 720.061 1034.06 710.094 1040.46 703.329C1046.86 696.564 1056.11 693.182 1068.19 693.182ZM779.275 694.631C780.362 694.631 780.906 695.235 780.906 696.443V745.551H790.691L816.785 695.899C817.027 695.296 817.329 694.933 817.691 694.812C818.054 694.692 818.417 694.631 818.779 694.631H833.819C834.423 694.631 834.785 694.873 834.906 695.355C835.027 695.839 834.906 696.383 834.544 696.987L805.731 751.35L837.806 810.967C838.168 811.571 838.229 812.115 837.987 812.598C837.746 813.081 837.262 813.323 836.537 813.323H820.591C820.229 813.323 819.866 813.262 819.504 813.142C819.142 813.021 818.839 812.659 818.598 812.055L791.054 761.135H780.906V811.511C780.906 812.719 780.362 813.323 779.275 813.323H765.322C764.235 813.323 763.691 812.719 763.691 811.511V696.443C763.691 695.235 764.235 694.631 765.322 694.631H779.275ZM953.76 694.631C954.847 694.631 955.391 695.235 955.391 696.443V744.645H994.169V696.443C994.169 695.235 994.713 694.631 995.8 694.631H1009.75C1010.84 694.631 1011.38 695.235 1011.38 696.443V811.511C1011.38 812.719 1010.84 813.323 1009.75 813.323H995.8C994.713 813.323 994.169 812.719 994.169 811.511V760.229H955.391V811.511C955.391 812.719 954.847 813.323 953.76 813.323H939.807C938.719 813.323 938.176 812.719 938.176 811.511V696.443C938.176 695.235 938.719 694.631 939.807 694.631H953.76ZM1183.44 694.631C1184.53 694.631 1185.07 695.235 1185.07 696.443V708.403C1185.07 709.732 1184.53 710.396 1183.44 710.396H1159.34V811.511C1159.34 812.719 1158.8 813.323 1157.71 813.323H1143.76C1142.67 813.323 1142.13 812.719 1142.13 811.511V710.396H1118.03C1116.94 710.396 1116.4 709.732 1116.4 708.403V696.443C1116.4 695.235 1116.94 694.631 1118.03 694.631H1183.44ZM1231.8 694.631C1232.77 694.631 1233.44 695.115 1233.8 696.081L1264.06 811.33C1264.3 812.659 1263.82 813.323 1262.61 813.323H1247.21C1246.48 813.323 1245.88 812.839 1245.4 811.873L1239.48 786.504H1205.29L1199.37 811.873C1199.13 812.839 1198.46 813.323 1197.38 813.323H1182.52C1181.31 813.323 1180.89 812.659 1181.25 811.33L1211.15 696.081C1211.39 695.115 1212.05 694.631 1213.14 694.631H1231.8ZM1290.16 694.631C1291.25 694.631 1291.79 695.235 1291.79 696.443V744.645H1330.57V696.443C1330.57 695.235 1331.12 694.631 1332.2 694.631H1346.16C1347.24 694.631 1347.79 695.235 1347.79 696.443V811.511C1347.79 812.719 1347.24 813.323 1346.16 813.323H1332.2C1331.12 813.323 1330.57 812.719 1330.57 811.511V760.229H1291.79V811.511C1291.79 812.719 1291.25 813.323 1290.16 813.323H1276.21C1275.12 813.323 1274.58 812.719 1274.58 811.511V696.443C1274.58 695.235 1275.12 694.631 1276.21 694.631H1290.16ZM1429.6 694.631C1430.68 694.631 1431.23 695.235 1431.23 696.443V708.403C1431.23 709.732 1430.68 710.396 1429.6 710.396H1405.5V811.511C1405.5 812.719 1404.95 813.323 1403.87 813.323H1389.91C1388.83 813.323 1388.28 812.719 1388.28 811.511V710.396H1364.18C1363.09 710.396 1362.55 709.732 1362.55 708.403V696.443C1362.55 695.235 1363.09 694.631 1364.18 694.631H1429.6ZM1460.92 694.631C1462.13 694.631 1462.73 695.235 1462.73 696.443V747.726C1462.73 752.195 1462.61 757.088 1462.37 762.403C1462.13 767.598 1461.89 772.551 1461.64 777.263C1461.4 781.974 1461.16 785.96 1460.92 789.222H1461.28C1462.37 785.96 1463.64 782.336 1465.09 778.35C1466.54 774.242 1468.23 769.652 1470.16 764.578C1472.21 759.504 1474.57 753.887 1477.23 747.726L1499.34 695.899C1499.58 695.054 1500.18 694.631 1501.15 694.631H1517.09C1518.3 694.631 1518.91 695.235 1518.91 696.443V811.511C1518.91 812.719 1518.3 813.323 1517.09 813.323H1503.68C1502.48 813.323 1501.87 812.719 1501.87 811.511L1502.24 762.766C1502.36 758.296 1502.48 753.342 1502.6 747.906C1502.72 742.47 1502.9 737.155 1503.14 731.96C1503.5 726.766 1503.87 722.477 1504.23 719.095H1503.68C1502.48 722.477 1501.09 726.283 1499.52 730.511C1497.95 734.739 1496.13 739.511 1494.08 744.826C1492.03 750.142 1489.49 756.121 1486.47 762.766L1465.27 812.055C1465.03 812.9 1464.42 813.323 1463.46 813.323H1447.51C1446.42 813.323 1445.88 812.719 1445.88 811.511V696.443C1445.88 695.235 1446.42 694.631 1447.51 694.631H1460.92ZM1555.96 694.631C1557.05 694.631 1557.59 695.235 1557.59 696.443V744.645H1596.37V696.443C1596.37 695.235 1596.91 694.631 1598 694.631H1611.95C1613.04 694.631 1613.58 695.235 1613.58 696.443V811.511C1613.58 812.719 1613.04 813.323 1611.95 813.323H1598C1596.91 813.323 1596.37 812.719 1596.37 811.511V760.229H1557.59V811.511C1557.59 812.719 1557.05 813.323 1555.96 813.323H1542.01C1540.92 813.323 1540.38 812.719 1540.38 811.511V696.443C1540.38 695.235 1540.92 694.631 1542.01 694.631H1555.96ZM1674.92 694.631C1675.88 694.631 1676.55 695.115 1676.91 696.081L1707.17 811.33C1707.41 812.659 1706.93 813.323 1705.72 813.323H1690.32C1689.6 813.323 1688.99 812.839 1688.51 811.873L1682.59 786.504H1648.4L1642.48 811.873C1642.24 812.839 1641.57 813.323 1640.49 813.323H1625.63C1624.42 813.323 1624 812.659 1624.36 811.33L1654.26 696.081C1654.5 695.115 1655.17 694.631 1656.25 694.631H1674.92ZM1786.05 694.631C1787.02 694.631 1787.68 695.115 1788.04 696.081L1818.3 811.33C1818.55 812.659 1818.06 813.323 1816.85 813.323H1801.45C1800.73 813.323 1800.12 812.839 1799.64 811.873L1793.72 786.504H1759.53L1753.61 811.873C1753.37 812.839 1752.71 813.323 1751.62 813.323H1736.76C1735.55 813.323 1735.13 812.659 1735.49 811.33L1765.39 696.081C1765.63 695.115 1766.3 694.631 1767.38 694.631H1786.05ZM1844.41 694.631C1845.5 694.631 1846.04 695.235 1846.04 696.443V744.645H1884.82V696.443C1884.82 695.235 1885.36 694.631 1886.45 694.631H1900.4C1901.49 694.631 1902.03 695.236 1902.03 696.443V811.511C1902.03 812.719 1901.49 813.323 1900.4 813.323H1886.45C1885.36 813.323 1884.82 812.719 1884.82 811.511V760.229H1846.04V811.511C1846.04 812.719 1845.5 813.323 1844.41 813.323H1830.46C1829.37 813.323 1828.82 812.719 1828.82 811.511V696.443C1828.82 695.235 1829.37 694.631 1830.46 694.631H1844.41ZM2041.63 694.631C2054.07 694.631 2063.32 697.772 2069.36 704.054C2075.4 710.215 2078.41 719.638 2078.42 732.322C2078.42 744.403 2075.33 753.705 2069.17 760.229C2063.13 766.631 2054.07 769.833 2041.99 769.833H2032.03V811.511C2032.03 812.719 2031.48 813.323 2030.4 813.323H2016.44C2015.36 813.323 2014.81 812.719 2014.81 811.511V696.443C2014.81 695.235 2015.36 694.631 2016.44 694.631H2041.63ZM2150.26 694.631C2151.34 694.631 2151.89 695.235 2151.89 696.443V708.403C2151.89 709.732 2151.34 710.396 2150.26 710.396H2111.66V745.551H2146.81C2147.9 745.551 2148.44 746.155 2148.44 747.363V758.779C2148.44 759.987 2147.9 760.591 2146.81 760.591H2111.66V797.558H2150.26C2151.34 797.558 2151.89 798.222 2151.89 799.551V811.511C2151.89 812.719 2151.34 813.323 2150.26 813.323H2096.26C2095.05 813.323 2094.44 812.719 2094.44 811.511V696.443C2094.44 695.235 2094.99 694.631 2096.08 694.631H2150.26ZM2227.23 694.631C2228.32 694.631 2228.87 695.235 2228.87 696.443V708.403C2228.87 709.732 2228.32 710.396 2227.23 710.396H2188.64V745.551H2223.79C2224.88 745.551 2225.42 746.155 2225.42 747.363V758.779C2225.42 759.987 2224.88 760.591 2223.79 760.591H2188.64V797.558H2227.23C2228.32 797.558 2228.87 798.222 2228.87 799.551V811.511C2228.87 812.719 2228.32 813.323 2227.23 813.323H2173.23C2172.03 813.323 2171.42 812.719 2171.42 811.511V696.443C2171.42 695.235 2171.97 694.631 2173.05 694.631H2227.23ZM2276.49 694.631C2288.33 694.631 2297.09 697.108 2302.76 702.061C2308.56 706.893 2311.46 714.202 2311.46 723.987C2311.46 730.511 2310.13 735.886 2307.47 740.114C2304.94 744.342 2300.95 747.786 2295.51 750.443V750.806C2302.04 752.376 2306.99 755.638 2310.37 760.591C2313.88 765.423 2315.63 771.826 2315.63 779.799C2315.63 791.155 2312.55 799.612 2306.39 805.169C2300.23 810.605 2290.68 813.323 2277.76 813.323H2250.21C2249 813.323 2248.4 812.719 2248.4 811.511V696.443C2248.4 695.235 2249 694.631 2250.21 694.631H2276.49ZM2371.62 694.631C2372.58 694.631 2373.25 695.115 2373.61 696.081L2403.87 811.33C2404.11 812.659 2403.63 813.323 2402.42 813.323H2387.02C2386.29 813.323 2385.69 812.839 2385.21 811.873L2379.29 786.504H2345.1L2339.18 811.873C2338.94 812.839 2338.27 813.323 2337.19 813.323H2322.33C2321.12 813.323 2320.7 812.659 2321.06 811.33L2350.96 696.081C2351.2 695.115 2351.86 694.631 2352.95 694.631H2371.62ZM881.314 708.946C874.791 708.946 869.838 710.94 866.455 714.927C863.073 718.793 861.381 724.833 861.381 733.048V775.088C861.381 783.182 863.073 789.222 866.455 793.209C869.838 797.075 874.791 799.008 881.314 799.008C887.959 799.008 892.972 797.075 896.354 793.209C899.737 789.222 901.429 783.182 901.429 775.088V733.048C901.429 724.833 899.737 718.793 896.354 714.927C892.972 710.94 887.959 708.946 881.314 708.946ZM2265.62 798.102H2277.94C2285.06 798.102 2290.26 796.591 2293.52 793.571C2296.78 790.43 2298.41 785.417 2298.41 778.531C2298.41 771.887 2296.72 766.993 2293.34 763.853C2290.08 760.712 2285 759.142 2278.12 759.142H2265.62V798.102ZM1958.11 711.665C1957.14 716.256 1956.18 720.786 1955.21 725.256C1954.37 729.725 1953.46 734.255 1952.49 738.846L1939.65 797.558H1976.81L1964.27 738.665C1963.18 734.074 1962.16 729.544 1961.19 725.074C1960.22 720.605 1959.32 716.135 1958.47 711.665H1958.11ZM1222.02 711.665C1221.29 715.772 1220.51 719.819 1219.66 723.806C1218.82 727.671 1217.97 731.658 1217.13 735.766L1208.75 771.645H1236.01L1227.64 735.766C1226.67 731.779 1225.76 727.792 1224.92 723.806C1224.07 719.819 1223.23 715.772 1222.38 711.665H1222.02ZM1665.13 711.665C1664.41 715.772 1663.62 719.819 1662.78 723.806C1661.93 727.671 1661.08 731.658 1660.24 735.766L1651.87 771.645H1679.12L1670.75 735.766C1669.78 731.779 1668.88 727.792 1668.03 723.806C1667.19 719.819 1666.34 715.772 1665.49 711.665H1665.13ZM1776.26 711.665C1775.54 715.772 1774.75 719.819 1773.91 723.806C1773.06 727.671 1772.22 731.658 1771.37 735.766L1763 771.645H1790.25L1781.88 735.766C1780.92 731.779 1780.01 727.792 1779.16 723.806C1778.32 719.819 1777.47 715.772 1776.63 711.665H1776.26ZM2361.83 711.665C2361.11 715.772 2360.32 719.819 2359.47 723.806C2358.63 727.671 2357.78 731.658 2356.94 735.766L2348.57 771.645H2375.82L2367.45 735.766C2366.48 731.779 2365.58 727.792 2364.73 723.806C2363.88 719.819 2363.04 715.772 2362.19 711.665H2361.83ZM407.83 348.346C408.327 348.293 410.915 348.293 413.58 348.346C420.82 348.503 442.515 348.711 477.095 348.973C494.137 349.103 517.425 349.339 528.848 349.496C540.27 349.627 563.632 349.809 575.264 349.861C583.353 349.905 597.226 355.563 576.343 366.079C564.816 371.935 560.709 373.678 555.639 376.423C552.764 377.965 548.896 380.031 547.014 380.998C545.158 381.965 542.387 383.429 540.871 384.266C539.355 385.076 535.67 387.116 532.638 388.763C529.632 390.41 524.561 393.154 521.398 394.854C518.236 396.553 513.479 399.141 510.812 400.605C508.147 402.069 504.801 403.899 503.363 404.657C499.626 406.644 488.674 412.553 485.59 414.278C484.152 415.063 480.754 416.919 478.01 418.383C475.292 419.847 471.685 421.808 470.038 422.749C468.391 423.69 465.359 425.337 463.32 426.435C461.256 427.559 457.91 429.337 455.871 430.435C453.806 431.559 450.304 433.467 448.082 434.722C445.86 435.976 442.515 437.833 440.633 438.826C438.777 439.846 434.072 442.434 430.178 444.578C413.476 453.807 409.737 455.872 404.301 458.853C401.138 460.578 396.382 463.192 393.716 464.656C391.05 466.12 385.874 468.944 382.215 470.931C378.556 472.918 373.798 475.505 371.629 476.682C369.486 477.884 364.075 480.786 359.605 483.165C355.162 485.544 348.681 489.022 345.23 490.878C338.827 494.355 335.166 496.341 322.098 503.348C314.544 507.4 303.618 513.335 296.404 517.309C294.235 518.511 290.68 520.419 288.511 521.569C286.367 522.72 282.368 524.942 279.624 526.484C276.906 528.027 273.482 529.935 272.044 530.72C245.619 545.36 235.844 552.601 235.844 557.595C235.844 562.588 245.619 569.83 272.044 584.47C273.482 585.254 276.906 587.163 279.624 588.705C282.368 590.247 286.367 592.47 288.511 593.62C290.68 594.77 294.235 596.678 296.404 597.881C303.618 601.855 314.544 607.79 322.098 611.842C335.166 618.848 338.827 620.835 345.23 624.312C348.681 626.168 355.162 629.645 359.605 632.024C364.075 634.403 369.486 637.305 371.629 638.508C373.798 639.684 378.556 642.272 382.215 644.259C385.874 646.246 391.05 649.069 393.716 650.533C396.382 651.997 401.138 654.612 404.301 656.337C409.737 659.317 413.476 661.383 430.178 670.611C434.072 672.755 438.777 675.343 440.633 676.362C442.515 677.356 445.86 679.212 448.082 680.467C450.304 681.722 453.806 683.631 455.871 684.755C457.91 685.853 461.256 687.631 463.32 688.755C465.359 689.853 468.391 691.499 470.038 692.44C471.685 693.382 475.292 695.343 478.01 696.807C480.754 698.271 484.152 700.127 485.59 700.911C488.675 702.637 499.626 708.544 503.363 710.531C504.801 711.289 508.147 713.12 510.812 714.584C513.479 716.048 518.236 718.636 521.398 720.335C524.561 722.034 529.632 724.78 532.638 726.427C535.67 728.074 539.355 730.112 540.871 730.923C542.387 731.759 545.158 733.224 547.014 734.191C548.896 735.159 552.764 737.224 555.639 738.767C560.71 741.512 572.559 748.545 584.086 754.401C605.081 764.974 578.56 765.285 570.537 765.327C522.143 765.542 473.73 766.009 425.342 766.713C416.351 766.817 408.588 766.896 408.091 766.844C407.594 766.791 405.529 766.634 403.518 766.478C391.05 765.484 381.065 762.034 365.879 753.459C364.729 752.805 360.155 750.374 355.686 748.047C351.242 745.694 344.524 742.191 340.786 740.204C337.049 738.217 331.299 735.211 327.979 733.485C324.687 731.76 321.838 730.245 321.68 730.113C321.523 729.983 318.909 728.597 315.93 727.028C312.924 725.486 307.174 722.479 303.148 720.335C299.123 718.217 293.529 715.29 290.732 713.8C287.936 712.336 283.807 710.165 281.585 708.963C279.363 707.786 272.881 704.362 267.209 701.382C261.537 698.402 253.068 693.931 248.39 691.447C243.711 688.964 237.778 685.8 235.19 684.44C232.603 683.081 229.78 681.539 228.917 681.042C228.054 680.519 225.414 679.081 223.036 677.853C217.965 675.186 212.084 672.022 207.876 669.748C203.563 667.395 195.669 663.134 188.403 659.291C184.953 657.461 180.013 654.821 177.426 653.409C174.838 652.024 170.604 649.749 168.017 648.39C165.429 647.004 160.384 644.311 156.777 642.351C153.197 640.416 148.073 637.671 145.407 636.233C142.741 634.796 137.801 632.154 134.43 630.351C131.058 628.573 125.935 625.828 123.06 624.26C120.185 622.717 116.943 620.992 115.871 620.469C114.799 619.92 111.689 618.299 108.945 616.809C102.437 613.305 92.5828 608.077 85.5518 604.391C82.4677 602.77 78.547 600.705 76.874 599.79C73.9727 598.195 61.4786 591.58 50.4746 585.803C41.1177 580.862 38.6863 579.581 34.4521 577.307C32.152 576.078 27.6306 573.672 24.3896 571.999C-2.76589 557.859 -2.76592 557.33 24.3896 543.189C27.6306 541.516 32.152 539.112 34.4521 537.883C38.6864 535.608 41.1177 534.328 50.4746 529.387C61.4786 523.609 73.9727 516.994 76.874 515.399C78.5469 514.484 82.4676 512.42 85.5518 510.799C92.5828 507.113 102.437 501.884 108.945 498.381C111.689 496.891 114.799 495.27 115.871 494.721C116.943 494.198 120.184 492.472 123.06 490.93C125.935 489.361 131.058 486.617 134.43 484.839C137.801 483.035 142.741 480.394 145.407 478.956C148.073 477.518 153.197 474.773 156.777 472.839C160.384 470.878 165.429 468.185 168.017 466.8C170.604 465.44 174.838 463.166 177.426 461.78C180.013 460.369 184.953 457.728 188.403 455.898C195.67 452.055 203.563 447.793 207.876 445.44C212.084 443.166 217.965 440.003 223.036 437.337C225.414 436.108 228.054 434.67 228.917 434.147C229.78 433.651 232.603 432.107 235.19 430.748C237.778 429.389 243.711 426.226 248.39 423.742C253.068 421.259 261.537 416.788 267.209 413.808C272.881 410.827 279.363 407.403 281.585 406.227C283.807 405.024 287.936 402.854 290.732 401.39C293.529 399.899 299.123 396.971 303.148 394.854C307.174 392.71 312.924 389.704 315.93 388.161C318.909 386.593 321.523 385.207 321.68 385.076C321.837 384.945 324.687 383.429 327.979 381.704C331.299 379.979 337.049 376.972 340.786 374.985C344.524 372.998 351.242 369.495 355.686 367.143C360.155 364.816 364.729 362.384 365.879 361.73C381.013 353.208 391.024 349.731 403.387 348.711C405.321 348.554 407.333 348.398 407.83 348.346ZM2032.03 754.43H2041.45C2048.33 754.43 2053.35 752.678 2056.49 749.175C2059.63 745.551 2061.2 740.054 2061.2 732.685C2061.2 724.712 2059.57 718.973 2056.31 715.47C2053.17 711.846 2048.27 710.034 2041.63 710.034H2032.03V754.43ZM2265.62 745.007H2276.85C2282.77 745.007 2287.18 743.497 2290.08 740.477C2292.98 737.336 2294.43 732.745 2294.43 726.705C2294.43 720.665 2292.98 716.316 2290.08 713.658C2287.18 711 2282.47 709.672 2275.94 709.672H2265.62V745.007ZM1476.74 303.537C1479.29 303.537 1480.71 304.671 1480.99 306.938L1539.83 545.006H1554.96C1557.51 545.006 1558.79 546.423 1558.79 549.257V635.131C1558.79 636.548 1558.36 637.54 1557.51 638.106C1556.95 638.957 1556.1 639.382 1554.96 639.382H1522.65C1520.1 639.382 1518.83 637.965 1518.83 635.131V581.991H1390.44V635.131C1390.44 637.965 1389.02 639.382 1386.19 639.382H1354.31C1351.75 639.382 1350.48 637.965 1350.48 635.131V549.257C1350.48 546.423 1351.75 545.006 1354.31 545.006H1369.43L1428.28 306.938C1429.13 304.671 1430.69 303.537 1432.95 303.537H1476.74ZM1208.65 304.64C1211.2 304.64 1212.76 305.774 1213.33 308.041L1227.21 367.558H1307.42L1321.31 308.041C1322.44 305.774 1323.86 304.64 1325.56 304.64H1361.69C1364.53 304.64 1365.66 306.199 1365.09 309.316L1294.1 579.692C1293.25 581.96 1291.69 583.094 1289.42 583.094H1245.64C1243.09 583.094 1241.53 581.96 1240.96 579.692L1170.82 309.316C1169.97 306.199 1170.96 304.64 1173.79 304.64H1208.65ZM871.608 303.537C873.876 303.537 875.435 304.671 876.285 306.938L947.279 577.314C947.846 580.432 946.713 581.991 943.879 581.991H907.743C906.043 581.991 904.626 580.857 903.492 578.59L889.605 519.073H809.399L795.512 578.59C794.945 580.857 793.386 581.991 790.836 581.991H755.976C753.142 581.991 752.15 580.432 753 577.314L823.145 306.938C823.711 304.671 825.271 303.537 827.821 303.537H871.608ZM1008.52 303.537C1011.07 303.537 1012.35 304.955 1012.35 307.789V422.996H1035.3L1096.52 306.514C1097.09 305.097 1097.8 304.246 1098.65 303.963C1099.5 303.68 1100.35 303.537 1101.2 303.537H1136.48C1137.9 303.537 1138.75 304.105 1139.03 305.238C1139.32 306.372 1139.03 307.648 1138.18 309.064L1070.59 436.6L1145.83 576.465C1146.68 577.882 1146.83 579.157 1146.26 580.29C1145.69 581.424 1144.56 581.991 1142.86 581.991H1105.45C1104.6 581.991 1103.75 581.849 1102.9 581.565C1102.05 581.282 1101.34 580.431 1100.77 579.015L1036.15 459.557H1012.35V577.74C1012.35 580.574 1011.07 581.991 1008.52 581.991H975.786C973.236 581.991 971.96 580.574 971.96 577.74V307.789C971.96 304.955 973.235 303.537 975.786 303.537H1008.52ZM1717.74 303.537C1720.29 303.537 1721.57 304.955 1721.57 307.789V335.847C1721.57 338.964 1720.29 340.522 1717.74 340.522H1627.19V422.996H1709.67C1712.22 422.996 1713.49 424.413 1713.49 427.247V454.03C1713.49 456.864 1712.22 458.281 1709.67 458.281H1627.19V545.006H1717.74C1720.29 545.006 1721.57 546.564 1721.57 549.682V577.74C1721.57 580.574 1720.29 581.991 1717.74 581.991H1591.06C1588.22 581.991 1586.81 580.574 1586.81 577.74V307.789C1586.81 304.955 1588.08 303.537 1590.63 303.537H1717.74ZM1816.29 303.537C1818.56 303.537 1820.26 304.671 1821.39 306.938L1873.68 463.808L1925.54 306.938C1926.39 304.671 1927.95 303.537 1930.22 303.537H1975.28C1977.83 303.537 1979.11 304.955 1979.11 307.789L1983.79 577.74C1983.79 580.574 1982.51 581.991 1979.96 581.991H1947.65C1945.1 581.991 1943.82 580.574 1943.82 577.74L1941.27 424.696C1941.27 413.927 1941.41 403.299 1941.7 392.812C1941.98 382.043 1942.41 371.699 1942.97 361.779H1941.7C1939.15 370.848 1936.17 380.342 1932.77 390.262C1929.65 399.898 1926.39 409.25 1922.99 418.319L1878.36 543.305C1877.79 545.572 1876.37 546.706 1874.1 546.706H1872.4C1870.14 546.706 1868.72 545.572 1868.15 543.305L1823.09 417.47C1819.69 408.117 1816.43 398.765 1813.31 389.412C1810.48 380.06 1807.64 370.848 1804.81 361.779H1803.96C1804.53 371.415 1804.95 381.618 1805.23 392.388C1805.52 402.874 1805.66 413.502 1805.66 424.271L1802.68 577.74C1802.68 580.574 1801.41 581.991 1798.86 581.991H1766.97C1764.14 581.991 1762.72 580.574 1762.72 577.74L1767.4 307.789C1767.4 304.955 1768.82 303.537 1771.65 303.537H1816.29ZM2064.65 303.537C2067.48 303.537 2068.9 304.955 2068.9 307.789V428.098C2068.9 438.584 2068.62 450.062 2068.05 462.532C2067.48 474.719 2066.91 486.339 2066.35 497.393C2065.78 508.445 2065.21 517.798 2064.65 525.45H2065.5C2068.05 517.798 2071.02 509.295 2074.43 499.942C2077.83 490.306 2081.79 479.537 2086.33 467.634C2091.15 455.73 2096.67 442.552 2102.91 428.098L2154.77 306.514C2155.34 304.53 2156.76 303.537 2159.02 303.537H2196.43C2199.27 303.537 2200.69 304.955 2200.69 307.789V577.74C2200.69 580.574 2199.27 581.991 2196.43 581.991H2164.98C2162.14 581.991 2160.72 580.574 2160.72 577.74L2161.58 463.383C2161.86 452.897 2162.14 441.276 2162.42 428.522C2162.71 415.769 2163.13 403.299 2163.7 391.112C2164.55 378.926 2165.4 368.864 2166.25 360.929H2164.98C2162.14 368.864 2158.88 377.792 2155.2 387.711C2151.51 397.63 2147.26 408.826 2142.44 421.296C2137.63 433.766 2131.68 447.795 2124.59 463.383L2074.85 579.015C2074.28 580.998 2072.87 581.991 2070.6 581.991H2033.19C2030.64 581.991 2029.36 580.574 2029.36 577.74V307.789C2029.36 304.955 2030.64 303.537 2033.19 303.537H2064.65ZM2399 303.537C2401.83 303.537 2403.25 304.955 2403.25 307.789V577.74C2403.25 580.574 2401.83 581.991 2399 581.991H2366.69C2363.85 581.991 2362.44 580.574 2362.44 577.74V466.358H2325.03L2276.99 579.015C2276.7 579.865 2276.14 580.574 2275.29 581.141C2274.44 581.707 2273.59 581.991 2272.74 581.991H2236.6C2233.48 581.991 2232.63 580.149 2234.05 576.465L2268.91 498.242C2271.75 491.724 2274.72 485.205 2277.84 478.687C2280.96 471.885 2284.07 465.366 2287.19 459.131V458.281C2274.15 452.33 2264.23 443.544 2257.43 431.924C2250.63 420.304 2247.23 405.566 2247.23 387.711C2247.23 369.289 2250.35 353.843 2256.58 341.373C2263.1 328.903 2272.6 319.551 2285.07 313.315C2297.82 306.797 2313.83 303.537 2333.1 303.537H2399ZM1453.78 343.499C1451.52 354.269 1449.25 364.897 1446.98 375.383C1445 385.869 1442.87 396.497 1440.6 407.267L1410.47 545.006H1497.67L1468.24 406.842C1465.69 396.072 1463.28 385.444 1461.01 374.958C1458.74 364.472 1456.62 353.985 1454.63 343.499H1453.78ZM1254.99 486.591C1256.97 496.227 1258.96 505.58 1260.94 514.649C1262.92 524.002 1264.77 533.496 1266.47 543.132H1267.32C1269.3 533.496 1271.28 524.002 1273.27 514.649C1275.25 505.297 1277.38 495.943 1279.65 486.591L1299.29 402.417H1235.35L1254.99 486.591ZM848.652 343.499C846.952 353.135 845.109 362.629 843.125 371.981C841.141 381.051 839.158 390.404 837.174 400.04L817.533 484.214H881.472L861.831 400.04C859.564 390.687 857.438 381.334 855.454 371.981C853.47 362.629 851.486 353.135 849.502 343.499H848.652ZM2333.53 339.673C2317.66 339.673 2306.04 343.641 2298.67 351.576C2291.3 359.228 2287.62 371.557 2287.62 388.562C2287.62 404.433 2291.16 415.911 2298.24 422.996C2305.61 429.798 2317.52 433.199 2333.95 433.199H2362.44V339.673H2333.53ZM299.385 0.380859C305.945 -1.39658 314.519 2.68163 341.545 20.4062C350.51 26.3145 351.922 27.2821 361.566 34.21C380.124 47.5429 402.288 65.7392 419.565 81.791C421.5 83.5949 424.61 86.4699 426.492 88.1953C431.615 92.9012 453.597 114.94 458.955 120.718C484.178 148.011 501.272 168.69 523.254 198.52C547.274 231.146 580.417 284.609 583.109 295.118C584.076 298.883 581.881 301.209 576.784 301.941C570.955 302.778 523.411 298.961 504.539 296.164C503.598 296.033 500.252 295.563 497.09 295.118C487.602 293.785 471.397 290.831 466.979 289.628C462.484 288.399 459.4 286.125 456.891 282.203C453.911 277.55 446.723 266.832 444.763 264.139C425.839 237.891 409.476 217.735 389.429 196.036C376.203 181.71 355.189 160.821 345.23 152.089C343.505 150.599 340.735 148.167 339.088 146.729C316.923 127.331 305.971 121.189 298.365 123.934C285.035 128.744 243.789 164.403 217.129 194.206C209.784 202.389 207.275 205.291 203.981 209.238C202.073 211.539 199.642 214.415 198.623 215.617C196.663 217.97 193.422 222.075 188.848 228.035C183.359 235.12 181.373 237.787 178.263 242.179C176.512 244.61 174.446 247.511 173.636 248.583C164.592 260.557 141.512 297 132.469 313.549C131.92 314.542 130.587 316.896 129.516 318.752C128.444 320.608 124.862 327.562 121.543 334.176C112.552 352.188 112.761 351.927 97.9414 363.247C78.5211 378.07 54.3954 394.723 37.5889 404.919C35.2888 406.304 32.4399 408.056 31.2637 408.788C10.7459 421.676 3.68871 422.147 0.813477 410.802C0.0293574 407.665 -0.0492018 396.031 0.682617 389.364C1.78036 379.378 1.96333 377.913 2.56445 374.332C8.54999 338.202 25.5398 294.229 49.0898 253.942C49.848 252.635 51.913 249.106 53.6641 246.1C61.4792 232.714 72.3004 216.166 83.1475 201.003C131.763 133.057 189.24 75.2812 255.577 27.6748C278.474 11.257 293.216 2.05402 299.385 0.380859Z" fill="#f5f3ef"/>
</svg>
