<svg width="1652" height="535" viewBox="0 0 1652 535" fill="none" xmlns="http://www.w3.org/2000/svg">
<path d="M1215.19 391.094C1216.28 391.094 1216.88 391.577 1217 392.543L1242.08 494.021H1248.53C1249.62 494.021 1250.16 494.624 1250.16 495.832V532.437C1250.16 533.041 1249.98 533.463 1249.62 533.705C1249.38 534.067 1249.02 534.249 1248.53 534.249H1234.76C1233.67 534.249 1233.13 533.644 1233.13 532.437V509.785H1178.4V532.437C1178.4 533.645 1177.8 534.249 1176.59 534.249H1163C1161.91 534.249 1161.37 533.644 1161.37 532.437V495.832C1161.37 494.624 1161.91 494.021 1163 494.021H1169.45L1194.53 392.543C1194.89 391.577 1195.56 391.094 1196.53 391.094H1215.19ZM128.608 389.645C140.81 389.645 150.052 392.966 156.334 399.61C162.737 406.255 165.937 415.98 165.938 428.785V472.275C165.937 484.96 162.736 494.624 156.334 501.269C150.052 507.913 140.81 511.235 128.608 511.235C116.407 511.235 107.105 507.913 100.702 501.269C94.4204 494.624 91.2793 484.96 91.2793 472.275V428.785C91.2793 415.98 94.4203 406.255 100.702 399.61C107.105 392.966 116.407 389.645 128.608 389.645ZM315.48 389.645C323.695 389.645 330.702 391.335 336.501 394.718C342.299 397.98 346.528 402.692 349.186 408.853C351.843 414.893 352.628 422.021 351.541 430.235C351.42 431.564 350.816 432.229 349.729 432.229H335.775C334.688 432.228 334.145 431.624 334.145 430.416C334.749 422.322 333.481 416.161 330.34 411.933C327.199 407.584 322.305 405.409 315.661 405.409C309.138 405.409 304.124 407.463 300.621 411.57C297.239 415.557 295.547 421.839 295.547 430.416V470.463C295.547 479.04 297.239 485.383 300.621 489.49C304.124 493.477 309.138 495.47 315.661 495.47C322.547 495.47 327.561 493.235 330.702 488.766C333.843 484.175 335.111 478.074 334.507 470.463C334.265 469.255 334.749 468.651 335.957 468.651H349.729C350.816 468.651 351.48 469.316 351.722 470.645C352.688 483.208 349.97 493.114 343.567 500.362C337.165 507.611 327.803 511.235 315.48 511.235C303.4 511.235 294.158 507.913 287.755 501.269C281.352 494.624 278.151 484.598 278.151 471.188V429.691C278.151 416.524 281.352 406.557 287.755 399.792C294.158 393.027 303.4 389.645 315.48 389.645ZM26.5693 391.094C27.6566 391.094 28.2002 391.698 28.2002 392.906V442.014H37.9854L64.0801 392.362C64.3217 391.758 64.6239 391.396 64.9863 391.275C65.3487 391.155 65.7109 391.094 66.0732 391.094H81.1133C81.7173 391.094 82.0803 391.335 82.2012 391.818C82.322 392.302 82.2003 392.845 81.8379 393.449L53.0264 447.812L85.0996 507.43C85.462 508.034 85.5228 508.577 85.2812 509.061C85.0397 509.544 84.5566 509.785 83.832 509.785H67.8848C67.5225 509.785 67.1601 509.725 66.7979 509.604C66.4355 509.484 66.1332 509.121 65.8916 508.518L38.3486 457.598H28.2002V507.974C28.2001 509.182 27.6565 509.785 26.5693 509.785H12.6162C11.5292 509.785 10.9854 509.181 10.9854 507.974V392.906C10.9854 391.698 11.5292 391.094 12.6162 391.094H26.5693ZM201.054 391.094C202.141 391.094 202.685 391.698 202.685 392.906V441.107H241.464V392.906C241.464 391.698 242.007 391.094 243.095 391.094H257.048C258.135 391.094 258.679 391.698 258.679 392.906V507.974C258.679 509.181 258.135 509.785 257.048 509.785H243.095C242.008 509.785 241.464 509.182 241.464 507.974V456.691H202.685V507.974C202.685 509.182 202.141 509.785 201.054 509.785H187.101C186.014 509.785 185.47 509.181 185.47 507.974V392.906C185.47 391.698 186.014 391.094 187.101 391.094H201.054ZM430.737 391.094C431.825 391.094 432.368 391.698 432.368 392.906V404.865C432.368 406.194 431.825 406.859 430.737 406.859H406.637V507.974C406.637 509.182 406.093 509.785 405.006 509.785H391.053C389.966 509.785 389.422 509.182 389.422 507.974V406.859H365.321C364.234 406.859 363.69 406.194 363.69 404.865V392.906C363.69 391.698 364.234 391.094 365.321 391.094H430.737ZM479.1 391.094C480.066 391.094 480.73 391.577 481.093 392.543L511.354 507.792C511.596 509.121 511.112 509.785 509.904 509.785H494.502C493.777 509.785 493.173 509.302 492.689 508.336L486.771 482.967H452.582L446.663 508.336C446.422 509.302 445.757 509.785 444.67 509.785H429.811C428.602 509.785 428.18 509.121 428.542 507.792L458.441 392.543C458.683 391.577 459.348 391.094 460.435 391.094H479.1ZM537.458 391.094C538.545 391.094 539.089 391.698 539.089 392.906V441.107H577.868V392.906C577.868 391.698 578.412 391.094 579.499 391.094H593.452C594.539 391.094 595.083 391.698 595.083 392.906V507.974C595.083 509.181 594.539 509.785 593.452 509.785H579.499C578.412 509.785 577.868 509.182 577.868 507.974V456.691H539.089V507.974C539.089 509.182 538.545 509.785 537.458 509.785H523.505C522.418 509.785 521.874 509.181 521.874 507.974V392.906C521.874 391.698 522.418 391.094 523.505 391.094H537.458ZM676.892 391.094C677.979 391.094 678.522 391.698 678.522 392.906V404.865C678.522 406.194 677.979 406.859 676.892 406.859H652.791V507.974C652.791 509.181 652.247 509.785 651.16 509.785H637.207C636.12 509.785 635.576 509.182 635.576 507.974V406.859H611.475C610.388 406.859 609.844 406.194 609.844 404.865V392.906C609.844 391.698 610.388 391.094 611.475 391.094H676.892ZM708.214 391.094C709.422 391.094 710.025 391.698 710.025 392.906V444.188C710.025 448.657 709.905 453.551 709.663 458.866C709.421 464.061 709.18 469.013 708.938 473.725C708.697 478.436 708.455 482.423 708.214 485.685H708.576C709.663 482.423 710.932 478.799 712.382 474.812C713.832 470.705 715.522 466.114 717.455 461.04C719.509 455.966 721.865 450.349 724.522 444.188L746.63 392.362C746.871 391.517 747.476 391.094 748.442 391.094H764.389C765.597 391.094 766.2 391.698 766.2 392.906V507.974C766.2 509.182 765.597 509.785 764.389 509.785H750.979C749.771 509.785 749.167 509.182 749.167 507.974L749.529 459.229C749.65 454.759 749.771 449.805 749.892 444.369C750.012 438.933 750.194 433.617 750.436 428.423C750.798 423.228 751.16 418.939 751.522 415.557H750.979C749.771 418.939 748.382 422.745 746.812 426.973C745.241 431.201 743.429 435.974 741.375 441.289C739.321 446.604 736.785 452.584 733.765 459.229L712.562 508.518C712.321 509.363 711.717 509.785 710.751 509.785H694.805C693.717 509.785 693.174 509.182 693.174 507.974V392.906C693.174 391.698 693.717 391.094 694.805 391.094H708.214ZM803.255 391.094C804.342 391.094 804.886 391.698 804.886 392.906V441.107H843.664V392.906C843.664 391.698 844.208 391.094 845.295 391.094H859.248C860.335 391.094 860.879 391.698 860.879 392.906V507.974C860.879 509.182 860.335 509.785 859.248 509.785H845.295C844.208 509.785 843.664 509.181 843.664 507.974V456.691H804.886V507.974C804.886 509.182 804.342 509.785 803.255 509.785H789.302C788.215 509.785 787.671 509.182 787.671 507.974V392.906C787.671 391.698 788.215 391.094 789.302 391.094H803.255ZM922.212 391.094C923.178 391.094 923.843 391.577 924.205 392.543L954.467 507.792C954.708 509.121 954.225 509.785 953.017 509.785H937.614C936.889 509.785 936.285 509.302 935.802 508.336L929.883 482.967H895.694L889.775 508.336C889.534 509.302 888.869 509.785 887.782 509.785H872.923C871.715 509.785 871.292 509.121 871.654 507.792L901.554 392.543C901.795 391.577 902.46 391.094 903.547 391.094H922.212ZM1033.34 391.094C1034.31 391.094 1034.97 391.577 1035.34 392.543L1065.6 507.792C1065.84 509.121 1065.36 509.785 1064.15 509.785H1048.75C1048.02 509.785 1047.42 509.302 1046.93 508.336L1041.01 482.967H1006.83L1000.91 508.336C1000.67 509.302 1000 509.785 998.914 509.785H984.055C982.847 509.785 982.424 509.121 982.786 507.792L1012.69 392.543C1012.93 391.577 1013.59 391.094 1014.68 391.094H1033.34ZM1091.7 391.094C1092.79 391.094 1093.33 391.698 1093.33 392.906V441.107H1132.11V392.906C1132.11 391.698 1132.66 391.094 1133.74 391.094H1147.7C1148.78 391.094 1149.33 391.698 1149.33 392.906V507.974C1149.33 509.182 1148.78 509.785 1147.7 509.785H1133.74C1132.66 509.785 1132.11 509.182 1132.11 507.974V456.691H1093.33V507.974C1093.33 509.181 1092.79 509.785 1091.7 509.785H1077.75C1076.66 509.785 1076.12 509.182 1076.12 507.974V392.906C1076.12 391.698 1076.66 391.094 1077.75 391.094H1091.7ZM1288.92 391.094C1301.37 391.094 1310.61 394.235 1316.65 400.517C1322.69 406.678 1325.71 416.101 1325.71 428.785C1325.71 440.866 1322.63 450.168 1316.47 456.691C1310.43 463.094 1301.37 466.296 1289.29 466.296H1279.32V507.974C1279.32 509.182 1278.78 509.785 1277.69 509.785H1263.74C1262.65 509.785 1262.11 509.182 1262.11 507.974V392.906C1262.11 391.698 1262.65 391.094 1263.74 391.094H1288.92ZM1397.55 391.094C1398.64 391.094 1399.18 391.698 1399.18 392.906V404.865C1399.18 406.194 1398.64 406.859 1397.55 406.859H1358.95V442.014H1394.11C1395.19 442.014 1395.74 442.617 1395.74 443.825V455.241C1395.74 456.449 1395.19 457.054 1394.11 457.054H1358.95V494.021H1397.55C1398.64 494.021 1399.18 494.685 1399.18 496.014V507.974C1399.18 509.182 1398.64 509.785 1397.55 509.785H1343.55C1342.34 509.785 1341.74 509.182 1341.74 507.974V392.906C1341.74 391.698 1342.28 391.094 1343.37 391.094H1397.55ZM1474.53 391.094C1475.62 391.094 1476.16 391.698 1476.16 392.906V404.865C1476.16 406.194 1475.62 406.859 1474.53 406.859H1435.93V442.014H1471.09C1472.17 442.014 1472.72 442.617 1472.72 443.825V455.241C1472.72 456.449 1472.17 457.054 1471.09 457.054H1435.93V494.021H1474.53C1475.62 494.021 1476.16 494.685 1476.16 496.014V507.974C1476.16 509.181 1475.62 509.785 1474.53 509.785H1420.53C1419.32 509.785 1418.72 509.182 1418.72 507.974V392.906C1418.72 391.698 1419.26 391.094 1420.35 391.094H1474.53ZM1523.78 391.094C1535.62 391.094 1544.38 393.57 1550.06 398.523C1555.86 403.356 1558.76 410.664 1558.76 420.449C1558.76 426.973 1557.43 432.349 1554.77 436.577C1552.23 440.805 1548.25 444.249 1542.81 446.906V447.269C1549.33 448.839 1554.29 452.101 1557.67 457.054C1561.17 461.886 1562.92 468.289 1562.92 476.262C1562.92 487.617 1559.84 496.074 1553.68 501.631C1547.52 507.067 1537.98 509.785 1525.05 509.785H1497.51C1496.3 509.785 1495.7 509.181 1495.7 507.974V392.906C1495.7 391.698 1496.3 391.094 1497.51 391.094H1523.78ZM1618.91 391.094C1619.88 391.094 1620.54 391.577 1620.9 392.543L1651.17 507.792C1651.41 509.121 1650.92 509.785 1649.72 509.785H1634.31C1633.59 509.785 1632.98 509.302 1632.5 508.336L1626.58 482.967H1592.39L1586.47 508.336C1586.23 509.302 1585.57 509.785 1584.48 509.785H1569.62C1568.41 509.785 1567.99 509.121 1568.35 507.792L1598.25 392.543C1598.49 391.577 1599.16 391.094 1600.25 391.094H1618.91ZM128.608 405.409C122.085 405.409 117.132 407.402 113.749 411.389C110.366 415.254 108.676 421.295 108.676 429.51V471.551C108.676 479.644 110.367 485.684 113.749 489.671C117.132 493.537 122.085 495.47 128.608 495.47C135.253 495.47 140.267 493.537 143.649 489.671C147.032 485.684 148.723 479.644 148.723 471.551V429.51C148.723 421.295 147.032 415.254 143.649 411.389C140.267 407.402 135.253 405.409 128.608 405.409ZM1512.91 494.564H1525.23C1532.36 494.564 1537.55 493.054 1540.82 490.034C1544.08 486.893 1545.71 481.879 1545.71 474.993C1545.71 468.349 1544.02 463.456 1540.63 460.315C1537.37 457.175 1532.3 455.604 1525.41 455.604H1512.91V494.564ZM1205.4 408.127C1204.44 412.717 1203.47 417.248 1202.5 421.718C1201.66 426.188 1200.75 430.718 1199.79 435.309L1186.94 494.021H1224.11L1211.57 435.128C1210.48 430.537 1209.45 426.007 1208.48 421.537C1207.52 417.067 1206.61 412.597 1205.77 408.127H1205.4ZM1609.12 408.127C1608.4 412.234 1607.62 416.282 1606.77 420.269C1605.92 424.134 1605.08 428.121 1604.23 432.229L1595.86 468.107H1623.11L1614.74 432.229C1613.78 428.242 1612.87 424.255 1612.02 420.269C1611.18 416.282 1610.33 412.234 1609.49 408.127H1609.12ZM469.313 408.127C468.589 412.234 467.804 416.282 466.958 420.269C466.112 424.134 465.267 428.121 464.421 432.229L456.05 468.107H483.303L474.932 432.229C473.965 428.242 473.059 424.255 472.213 420.269C471.367 416.282 470.522 412.234 469.677 408.127H469.313ZM912.426 408.127C911.701 412.234 910.916 416.282 910.07 420.269C909.225 424.134 908.379 428.121 907.533 432.229L899.162 468.107H926.415L918.044 432.229C917.078 428.242 916.171 424.255 915.325 420.269C914.48 416.282 913.635 412.234 912.789 408.127H912.426ZM1023.56 408.127C1022.83 412.234 1022.05 416.282 1021.2 420.269C1020.36 424.134 1019.51 428.121 1018.67 432.229L1010.29 468.107H1037.55L1029.18 432.229C1028.21 428.242 1027.3 424.255 1026.46 420.269C1025.61 416.282 1024.77 412.234 1023.92 408.127H1023.56ZM1279.32 450.893H1288.74C1295.63 450.893 1300.64 449.141 1303.78 445.638C1306.92 442.014 1308.5 436.517 1308.5 429.147C1308.5 421.174 1306.86 415.436 1303.6 411.933C1300.46 408.309 1295.57 406.496 1288.92 406.496H1279.32V450.893ZM1512.91 441.47H1524.14C1530.06 441.47 1534.47 439.96 1537.37 436.939C1540.27 433.799 1541.72 429.208 1541.72 423.168C1541.72 417.128 1540.27 412.779 1537.37 410.121C1534.47 407.463 1529.76 406.134 1523.24 406.134H1512.91V441.47ZM724.034 0C726.585 0 728.002 1.13406 728.285 3.40137L787.13 241.468H802.257C804.807 241.468 806.082 242.886 806.082 245.72V331.594C806.082 333.011 805.657 334.003 804.807 334.569C804.24 335.419 803.39 335.845 802.257 335.845H769.947C767.397 335.845 766.121 334.428 766.121 331.594V278.454H637.735V331.594C637.735 334.428 636.317 335.845 633.483 335.845H601.6C599.049 335.845 597.773 334.428 597.773 331.594V245.72C597.773 242.886 599.049 241.468 601.6 241.468H616.727L675.57 3.40137C676.421 1.13406 677.98 0 680.247 0H724.034ZM455.945 1.10254C458.496 1.10266 460.054 2.23672 460.621 4.50391L474.509 64.0205H554.715L568.602 4.50391C569.735 2.23676 571.152 1.1027 572.853 1.10254H608.988C611.822 1.10261 612.955 2.66182 612.389 5.7793L541.395 276.155C540.544 278.423 538.985 279.556 536.718 279.556H492.931C490.38 279.556 488.821 278.422 488.254 276.155L418.109 5.7793C417.259 2.6618 418.251 1.10258 421.085 1.10254H455.945ZM118.902 0C121.17 0 122.729 1.13406 123.579 3.40137L194.574 273.777C195.141 276.895 194.007 278.454 191.173 278.454H155.038C153.338 278.454 151.921 277.32 150.787 275.053L136.899 215.536H56.6934L42.8066 275.053C42.2398 277.32 40.6806 278.454 38.1299 278.454H3.27051C0.436421 278.454 -0.556221 276.895 0.293945 273.777L70.4395 3.40137C71.0063 1.13411 72.5646 5.19922e-05 75.1152 0H118.902ZM255.814 0C258.365 0 259.641 1.41705 259.641 4.25098V119.459H282.597L343.814 2.97559C344.381 1.5587 345.09 0.708193 345.94 0.424805C346.79 0.141507 347.641 0 348.491 0H383.775C385.192 0 386.043 0.566811 386.326 1.7002C386.61 2.83374 386.327 4.10946 385.477 5.52637L317.882 133.062L393.128 272.927C393.978 274.344 394.12 275.619 393.554 276.753C392.987 277.887 391.853 278.454 390.152 278.454H352.742C351.892 278.454 351.042 278.312 350.191 278.028C349.341 277.745 348.632 276.895 348.065 275.478L283.447 156.02H259.641V274.202C259.641 277.036 258.365 278.454 255.814 278.454H223.08C220.53 278.454 219.254 277.036 219.254 274.202V4.25098C219.254 1.41716 220.53 0.000107369 223.08 0H255.814ZM965.037 0C967.588 0 968.863 1.41705 968.863 4.25098V32.3096C968.863 35.4269 967.588 36.9854 965.037 36.9854H874.487V119.459H956.96C959.511 119.459 960.786 120.876 960.786 123.71V150.492C960.786 153.326 959.511 154.744 956.96 154.744H874.487V241.468H965.037C967.588 241.468 968.863 243.027 968.863 246.145V274.202C968.863 277.036 967.588 278.454 965.037 278.454H838.352C835.518 278.454 834.101 277.036 834.101 274.202V4.25098C834.101 1.41705 835.376 0 837.927 0H965.037ZM1063.58 0C1065.85 0 1067.55 1.13406 1068.68 3.40137L1120.97 160.271L1172.84 3.40137C1173.69 1.13406 1175.25 0 1177.51 0H1222.58C1225.13 4.52086e-05 1226.4 1.4171 1226.4 4.25098L1231.08 274.202C1231.08 277.036 1229.8 278.454 1227.25 278.454H1194.94C1192.39 278.454 1191.12 277.036 1191.12 274.202L1188.57 121.159C1188.57 110.39 1188.71 99.7616 1188.99 89.2754C1189.28 78.5057 1189.7 68.1607 1190.27 58.2412H1188.99C1186.44 67.3104 1183.47 76.8052 1180.07 86.7246C1176.95 96.3606 1173.69 105.713 1170.29 114.782L1125.65 239.768C1125.08 242.035 1123.67 243.169 1121.4 243.169H1119.7C1117.43 243.169 1116.01 242.035 1115.45 239.768L1070.38 113.933C1066.98 104.58 1063.72 95.2267 1060.61 85.874C1057.77 76.5215 1054.94 67.3104 1052.1 58.2412H1051.25C1051.82 67.8773 1052.25 78.0809 1052.53 88.8506C1052.81 99.3367 1052.95 109.965 1052.95 120.734L1049.98 274.202C1049.98 277.036 1048.7 278.454 1046.15 278.454H1014.27C1011.43 278.454 1010.02 277.036 1010.02 274.202L1014.69 4.25098C1014.69 1.41713 1016.11 8.13753e-05 1018.94 0H1063.58ZM1311.94 0C1314.78 0.000162748 1316.19 1.41722 1316.19 4.25098V124.561C1316.19 135.047 1315.91 146.525 1315.34 158.995C1314.78 171.182 1314.21 182.802 1313.64 193.854C1313.08 204.908 1312.51 214.261 1311.94 221.913H1312.79C1315.34 214.261 1318.32 205.758 1321.72 196.405C1325.12 186.769 1329.09 176 1333.62 164.097C1338.44 152.193 1343.97 139.015 1350.2 124.561L1402.07 2.97559C1402.63 0.991962 1404.05 3.56014e-05 1406.32 0H1443.73C1446.56 0.000162748 1447.98 1.41722 1447.98 4.25098V274.202C1447.98 277.036 1446.56 278.454 1443.73 278.454H1412.27C1409.44 278.454 1408.02 277.036 1408.02 274.202L1408.87 159.845C1409.15 149.359 1409.44 137.739 1409.72 124.985C1410 112.232 1410.43 99.7618 1411 87.5752C1411.85 75.3886 1412.7 65.3271 1413.55 57.3916H1412.27C1409.44 65.3271 1406.18 74.2544 1402.49 84.1738C1398.81 94.0931 1394.56 105.288 1389.74 117.758C1384.92 130.228 1378.97 144.257 1371.88 159.845L1322.14 275.478C1321.58 277.461 1320.16 278.454 1317.89 278.454H1280.48C1277.93 278.454 1276.66 277.036 1276.66 274.202V4.25098C1276.66 1.41705 1277.93 0 1280.48 0H1311.94ZM1646.29 0C1649.13 0 1650.54 1.41705 1650.54 4.25098V274.202C1650.54 277.036 1649.13 278.454 1646.29 278.454H1613.98C1611.15 278.454 1609.73 277.036 1609.73 274.202V162.821H1572.32L1524.28 275.478C1524 276.328 1523.43 277.037 1522.58 277.604C1521.73 278.17 1520.88 278.454 1520.03 278.454H1483.9C1480.78 278.454 1479.93 276.611 1481.35 272.927L1516.21 194.705C1519.04 188.187 1522.02 181.668 1525.13 175.149C1528.25 168.348 1531.37 161.829 1534.49 155.594V154.744C1521.45 148.793 1511.53 140.006 1504.73 128.387C1497.93 116.767 1494.52 102.029 1494.52 84.1738C1494.52 65.752 1497.64 50.3061 1503.88 37.8359C1510.4 25.3658 1519.89 16.0134 1532.36 9.77832C1545.11 3.25988 1561.13 0 1580.4 0H1646.29ZM701.078 39.9609C698.811 50.7307 696.544 61.3594 694.276 71.8457C692.292 82.3319 690.167 92.9599 687.899 103.729L657.77 241.468H744.959L715.532 103.305C712.982 92.535 710.572 81.9062 708.305 71.4199C706.037 60.9337 703.912 50.4471 701.928 39.9609H701.078ZM502.283 183.054C504.267 192.69 506.251 202.042 508.234 211.111C510.218 220.464 512.061 229.959 513.762 239.595H514.611C516.595 229.959 518.58 220.464 520.563 211.111C522.547 201.759 524.673 192.406 526.94 183.054L546.581 98.8799H482.643L502.283 183.054ZM95.9463 39.9609C94.2458 49.597 92.4038 59.0917 90.4199 68.4443C88.436 77.5135 86.4516 86.866 84.4678 96.502L64.8271 180.676H128.766L109.125 96.502C106.858 87.1494 104.732 77.7969 102.748 68.4443C100.764 59.0917 98.7808 49.597 96.7969 39.9609H95.9463ZM1580.82 36.1357C1564.95 36.1358 1553.33 40.1035 1545.96 48.0391C1538.6 55.6912 1534.91 68.0197 1534.91 85.0244C1534.91 100.895 1538.45 112.374 1545.54 119.459C1552.91 126.261 1564.81 129.662 1581.25 129.662H1609.73V36.1357H1580.82Z" fill="#f5f3ef"/>
</svg>
